<?xml version="1.0" standalone="no"?>
<!DOCTYPE svg PUBLIC "-//W3C//DTD SVG 20010904//EN"
 "http://www.w3.org/TR/2001/REC-SVG-20010904/DTD/svg10.dtd">
<svg version="1.0" xmlns="http://www.w3.org/2000/svg"
 width="260.000000pt" height="260.000000pt" viewBox="0 0 260.000000 260.000000"
 preserveAspectRatio="xMidYMid meet">
<metadata>
Created by potrace 1.11, written by Peter Selinger 2001-2013
</metadata>
<g transform="translate(0.000000,260.000000) scale(0.100000,-0.100000)"
fill="#000000" stroke="none">
<path d="M2469 2444 c21 -27 21 -29 21 -1146 l0 -1120 -29 -29 -29 -29 -1126
0 -1125 0 -28 24 -28 24 -5 1119 -5 1118 0 -1132 0 -1133 28 -27 27 -28 1145
0 1145 0 27 28 28 27 0 1139 0 1139 -24 26 c-32 34 -48 34 -22 0z"/>
<path d="M1831 1660 c-142 -30 -229 -132 -251 -294 -26 -185 38 -329 177 -398
60 -29 75 -32 157 -32 195 -1 304 84 342 265 40 189 -27 359 -168 428 -70 35
-178 47 -257 31z m178 -130 c80 -40 118 -131 108 -257 -7 -92 -36 -156 -87
-190 -100 -66 -225 -31 -281 79 -42 82 -34 234 16 309 47 73 163 101 244 59z"/>
<path d="M320 1300 l0 -362 193 4 c171 3 197 6 237 25 54 26 68 37 104 85 41
55 66 145 66 242 0 173 -57 288 -170 340 -39 18 -69 21 -237 24 l-193 4 0
-362z m377 214 c15 -11 38 -40 51 -65 21 -40 23 -55 20 -164 -5 -189 -38 -225
-205 -225 l-93 0 0 241 0 241 99 -4 c81 -2 105 -7 128 -24z"/>
<path d="M1308 1374 l-3 -286 -24 -19 c-13 -10 -39 -19 -58 -19 -45 0 -78 33
-87 89 -6 38 -9 43 -29 37 -12 -3 -42 -6 -66 -6 l-44 0 6 -49 c7 -62 38 -123
74 -149 87 -61 241 -51 310 20 60 62 63 78 63 388 l0 280 -70 0 -69 0 -3 -286z"/>
</g>
</svg>
